<?xml version="1.0" standalone="no"?><!DOCTYPE svg PUBLIC "-//W3C//DTD SVG 1.1//EN" "http://www.w3.org/Graphics/SVG/1.1/DTD/svg11.dtd"><svg class="icon" width="200px" height="200.00px" viewBox="0 0 1024 1024" version="1.1" xmlns="http://www.w3.org/2000/svg"><path d="M507.393443 140.244069h-13.307831V35.828777c-0.51184-19.961747-16.890709-35.828777-36.852456-35.828777-7.165755 0-13.819671 2.047359-19.961747 6.142076L57.998216 261.03823c-16.378869 11.260473-20.473587 33.269578-9.213114 49.648447 2.559198 3.582878 5.630236 7.165755 9.213114 9.213114l379.273193 254.896154c16.378869 11.260473 39.411654 6.653916 50.160287-9.724953 4.094717-5.630236 6.142076-12.795992 6.142076-19.961747V439.670273c172.489968-11.772312 322.970829 115.163925 341.397057 287.142053 2.047359 127.448077-76.26411 242.100162-195.522752 287.142053-2.559198 1.023679-4.606557 3.582878-4.606557 6.653915 0.51184 2.559198 3.071038 4.094717 5.630236 3.071038h0.51184c192.451715-50.672127 329.624745-220.091056 339.861538-418.684847-2.559198-259.502711-214.46082-467.309615-473.451691-464.750416z" /></svg>