<?xml version="1.0" standalone="no"?><!DOCTYPE svg PUBLIC "-//W3C//DTD SVG 1.1//EN" "http://www.w3.org/Graphics/SVG/1.1/DTD/svg11.dtd"><svg class="icon" width="200px" height="200.00px" viewBox="0 0 1024 1024" version="1.1" xmlns="http://www.w3.org/2000/svg"><path d="M516.7 150.7c4.3-0.1 8.6 0.1 12.9 0.1V49.2c0-27.8 31.2-44.3 54.2-28.7l364.6 247.6c15.8 10.8 20 32.3 9.2 48.2-2.5 3.6-5.6 6.7-9.2 9.2L583.7 573.1c-23 15.6-54.2-0.8-54.2-28.7V441.7c-175.7-2.1-321.7 120.5-328.8 279-5.4 121.6 72.6 229.4 188.2 279.2 2.1 0.9 4.3 2.7 4.1 6.3-0.2 2.9-3.2 3.8-5.8 3C202.1 954.8 65.8 794.9 60.7 602.4c-6.5-242.6 197.7-444.8 456-451.7z" fill="#070001" /></svg>