<?xml version="1.0" standalone="no"?><!DOCTYPE svg PUBLIC "-//W3C//DTD SVG 1.1//EN" "http://www.w3.org/Graphics/SVG/1.1/DTD/svg11.dtd"><svg class="icon" width="200px" height="200.00px" viewBox="0 0 1024 1024" version="1.1" xmlns="http://www.w3.org/2000/svg"><path d="M954.24 651.392l-82.784-42.784a11.008 11.008 0 0 0-5.152-1.232h-1.168a11.008 11.008 0 0 0-5.376 1.456l-57.232 32.704a14.928 14.928 0 0 0-1.808 1.184 5.968 5.968 0 0 0-2.608 5.088c-0.032 0.96 0.096 1.936 0.352 2.88v0.064a10.752 10.752 0 0 0 5.376 6.304l37.216 19.44a11.104 11.104 0 0 1 5.984 9.776 11.2 11.2 0 0 1-5.76 9.92l-324.8 178.672a11.024 11.024 0 0 1-10.4 0.096L181.44 705.296a11.12 11.12 0 0 1-5.952-9.664 11.2 11.2 0 0 1 5.552-9.92l40.832-23.568c0.976-0.56 1.28-0.752 2.112-1.264 4.224-2.576 3.776-6.256 3.744-6.72-0.048-0.432-0.272-4.736-3.632-6.864l-1.216-0.704-57.568-31.744a11.04 11.04 0 0 0-5.44-1.36h-1.232a11.04 11.04 0 0 0-4.976 1.232l-85.568 44.32c-6.128 3.36-11.232 8.336-14.784 14.4a39.008 39.008 0 0 0 15.36 54.08l426.432 229.072a30.4 30.4 0 0 0 16.64 3.296h0.72c6.336-0.064 12.608-0.16 16.048-3.072a12.288 12.288 0 0 1 1.968-1.28L954.88 719.856c5.984-3.152 11.024-7.904 14.544-13.712 3.52-5.808 5.424-12.48 5.472-19.296 0-0.912-0.096-0.48-0.08-1.44 0.256-10.8-4.064-25.056-20.576-34.016v-0.016z" fill="#000000" /><path d="M954.24 465.712l-82.784-42.784a11.008 11.008 0 0 0-5.152-1.232h-1.168a11.008 11.008 0 0 0-5.376 1.44l-57.232 32.704a14.96 14.96 0 0 0-1.808 1.184 5.968 5.968 0 0 0-2.624 5.088c-0.032 0.96 0.096 1.936 0.368 2.88v0.064a10.72 10.72 0 0 0 5.376 6.304l37.216 19.456a11.104 11.104 0 0 1 5.984 9.792 11.2 11.2 0 0 1-5.76 9.904l-324.8 178.672a10.992 10.992 0 0 1-10.4 0.112L181.44 519.616a11.104 11.104 0 0 1-5.952-9.664 11.2 11.2 0 0 1 5.552-9.904l40.832-23.584 2.112-1.248c4.224-2.592 3.776-6.272 3.744-6.72-0.048-0.448-0.272-4.752-3.632-6.88l-1.216-0.704-57.568-31.744a11.04 11.04 0 0 0-5.44-1.36h-1.232a11.04 11.04 0 0 0-4.976 1.232l-85.568 44.32c-6.128 3.36-11.232 8.336-14.784 14.4a39.008 39.008 0 0 0 15.36 54.08l426.432 229.072a30.4 30.4 0 0 0 16.64 3.296h0.72c6.336-0.048 12.608-0.16 16.048-3.056a12.192 12.192 0 0 1 1.968-1.296L954.88 534.144c5.984-3.168 11.024-7.904 14.544-13.712 3.52-5.824 5.424-12.48 5.472-19.296 0-0.912-0.096-0.48-0.08-1.44 0.256-10.8-4.064-25.056-20.576-34.032v0.048z" fill="#000000" /><path d="M65.76 353.248l424.448 232.768a30.4 30.4 0 0 0 16.96 3.408c6.784 0 13.6 0 16.976-3.408L952 353.248c6.16-3.312 11.296-8.24 14.88-14.272a39.024 39.024 0 0 0-14.88-54.192L530.96 69.12a30.656 30.656 0 0 0-33.92 0L69.184 284.784c-6.256 3.2-11.488 8.112-15.088 14.16-3.616 6.048-5.456 13.008-5.328 20.064-3.392 13.664 6.816 27.344 16.96 34.192v0.048z" fill="#000000" /></svg>