<?xml version="1.0" standalone="no"?><!DOCTYPE svg PUBLIC "-//W3C//DTD SVG 1.1//EN" "http://www.w3.org/Graphics/SVG/1.1/DTD/svg11.dtd"><svg class="icon" width="200px" height="200.00px" viewBox="0 0 1024 1024" version="1.1" xmlns="http://www.w3.org/2000/svg"><path d="M885.086164 0h-746.402699A138.837045 138.837045 0 0 0 0 138.683465v746.325909a138.913836 138.913836 0 0 0 138.837045 138.990626h403.149607a32.021597 32.021597 0 1 0 0-64.043195h-403.149607a74.870641 74.870641 0 0 1-74.79385-74.947431V138.760255a74.870641 74.870641 0 0 1 74.79385-74.64027h746.172329A74.947432 74.947432 0 0 1 959.880015 138.990626v467.192801a32.021597 32.021597 0 0 0 63.966404 0V138.837045A138.837045 138.837045 0 0 0 885.086164 0M319.294488 192.590326a32.021597 32.021597 0 0 0-32.021597 32.021598v131.311586a223.9976 223.9976 0 0 0 447.9952 0v-131.311586a32.021597 32.021597 0 1 0-64.043194 0v131.311586a159.954406 159.954406 0 0 1-319.908812 0v-131.311586a32.021597 32.021597 0 0 0-32.021597-32.021598M678.366404 699.867717m31.560855 0l85.621297 0q31.560855 0 31.560855 31.560854l0 85.621298q0 31.560855-31.560855 31.560855l-85.621297 0q-31.560855 0-31.560855-31.560855l0-85.621298q0-31.560855 31.560855-31.560854ZM679.51826 875.026622m31.560855 0l85.621297 0q31.560855 0 31.560855 31.560855l0 85.621297q0 31.560855-31.560855 31.560855l-85.621297 0q-31.560855 0-31.560855-31.560855l0-85.621297q0-31.560855 31.560855-31.560855ZM908.737608 720.524334l68.573828 21.654894-21.654893 68.573828-68.573828-21.654893 21.654893-68.573829m-4.453843-40.161379a31.560855 31.560855 0 0 0-30.101838 22.038845l-25.801575 81.628196a31.637645 31.637645 0 0 0 20.579828 39.623847l81.704987 25.801575a30.71616 30.71616 0 0 0 9.445219 1.459018 31.560855 31.560855 0 0 0 30.101837-22.038845l25.494414-81.321035a31.560855 31.560855 0 0 0-20.579828-39.547057l-81.704987-25.801575a30.71616 30.71616 0 0 0-9.445219-1.459017zM857.51841 875.026622m31.560855 0l85.621297 0q31.560855 0 31.560855 31.560855l0 85.621297q0 31.560855-31.560855 31.560855l-85.621297 0q-31.560855 0-31.560855-31.560855l0-85.621297q0-31.560855 31.560855-31.560855Z" /></svg>